<svg width="72" height="80" viewBox="0 0 72 80" fill="none" xmlns="http://www.w3.org/2000/svg" xmlns:xlink="http://www.w3.org/1999/xlink">
<g filter="url(#filterI38_105;2_43)">
<path d="M67.575,12.705L38.775,0.373C37.898,-0.001 36.957,-0.194 36.007,-0.194C35.058,-0.194 34.117,-0.001 33.24,0.373L4.44,12.705C1.755,13.845 0,16.543 0,19.534C0,50.132 17.175,71.281 33.225,78.156C34.995,78.911 36.99,78.911 38.76,78.156C51.615,72.653 72,53.646 72,19.534C72,16.543 70.245,13.845 67.575,12.705ZM36.015,68.599L36,9.868L62.385,21.167C61.89,44.506 50.07,61.416 36.015,68.599Z" fill="#6C63FF" stroke="#000000" stroke-width="1" stroke-miterlimit="3.999327"/>
</g>
<defs>
<filter id="filterI38_105;2_43" x="-4" y="-4.193604" width="44" height="47.458065" filterUnits="userSpaceOnUse" color-interpolation-filters="sRGB">
<feFlood flood-opacity="0" result="BackgroundImageFix"/>
<feColorMatrix in="SourceAlpha" type="matrix" values="0 0 0 0 0 0 0 0 0 0 0 0 0 0 0 0 0 0 127 0" result="hardAlpha"/>
<feMorphology radius="0" operator="dilate" in="SourceAlpha" result="0dropshadow"/>
<feOffset dx="0" dy="4"/>
<feGaussianBlur stdDeviation="2"/>
<feComposite in2="hardAlpha" operator="out"/>
<feColorMatrix type="matrix" values="0 0 0 0 0 0 0 0 0 0 0 0 0 0 0 0 0 0 0.25 0"/>
<feBlend mode="normal" in2="BackgroundImageFix" result="0dropshadow"/>
<feBlend mode="normal" in="SourceGraphic" in2="0dropshadow" result="shape"/>
</filter>
</defs>
</svg>
