<svg width="38" height="56" viewBox="0 0 38 56" fill="none" xmlns="http://www.w3.org/2000/svg" xmlns:xlink="http://www.w3.org/1999/xlink">
<path d="M37.5,28.172C37.5,43.27 29.234,55.51 19.037,55.51C8.84,55.51 0.574,43.27 0.574,28.172C0.574,13.073 8.84,0.834 19.037,0.834C29.234,0.834 37.5,13.073 37.5,28.172ZM16.902,42.647L30.6,22.364C31.065,21.675 31.065,20.558 30.6,19.87L28.916,17.375C28.45,16.687 27.696,16.687 27.231,17.375L16.059,33.917L10.844,26.194C10.378,25.505 9.624,25.505 9.159,26.194L7.474,28.688C7.009,29.377 7.009,30.494 7.474,31.183L15.217,42.647C15.682,43.336 16.436,43.336 16.902,42.647Z" fill="#000000"/>
</svg>
