<svg width="38" height="56" viewBox="0 0 38 56" fill="none" xmlns="http://www.w3.org/2000/svg" xmlns:xlink="http://www.w3.org/1999/xlink">
<path d="M36.926,27.17C36.926,42.269 28.66,54.509 18.463,54.509C8.266,54.509 0,42.269 0,27.17C0,12.072 8.266,-0.168 18.463,-0.168C28.66,-0.168 36.926,12.072 36.926,27.17ZM16.327,41.646L30.026,21.363C30.491,20.674 30.491,19.557 30.026,18.868L28.341,16.374C27.876,15.685 27.122,15.685 26.657,16.374L15.485,32.916L10.269,25.193C9.804,24.504 9.05,24.504 8.585,25.193L6.9,27.687C6.435,28.376 6.435,29.492 6.9,30.181L14.643,41.646C15.108,42.334 15.862,42.334 16.327,41.646Z" fill="#000000"/>
</svg>
