<svg width="70" height="70" viewBox="0 0 70 70" fill="none" xmlns="http://www.w3.org/2000/svg" xmlns:xlink="http://www.w3.org/1999/xlink">
<path d="M68.004,49.464L52.691,42.902C52.037,42.623 51.31,42.564 50.619,42.734C49.929,42.905 49.312,43.294 48.863,43.845L42.081,52.131C31.439,47.113 22.874,38.548 17.856,27.905L26.141,21.124C26.693,20.675 27.084,20.058 27.254,19.367C27.424,18.677 27.365,17.949 27.084,17.295L20.522,1.983C20.214,1.278 19.671,0.702 18.984,0.355C18.298,0.008 17.512,-0.088 16.762,0.082L2.543,3.363C1.82,3.53 1.175,3.938 0.713,4.518C0.251,5.099 0,5.819 0,6.561C0,41.63 28.424,70 63.439,70C64.181,70 64.901,69.749 65.482,69.287C66.064,68.825 66.471,68.18 66.638,67.457L69.919,53.238C70.089,52.484 69.99,51.695 69.64,51.007C69.291,50.318 68.712,49.773 68.004,49.464Z" fill="#FFF4F4"/>
</svg>
