<svg width="110" height="100" viewBox="0 0 110 100" fill="none" xmlns="http://www.w3.org/2000/svg" xmlns:xlink="http://www.w3.org/1999/xlink">
<path d="M110,50C110,77.621 85.383,100 55,100C24.617,100 0,77.621 0,50C0,22.379 24.617,0 55,0C85.383,0 110,22.379 110,50ZM45.242,26.613L45.242,50L29.518,50C27.145,50 25.948,52.621 27.633,54.133L53.115,77.177C54.157,78.125 55.821,78.125 56.863,77.177L82.345,54.133C84.03,52.601 82.833,50 80.46,50L64.758,50L64.758,26.613C64.758,25.282 63.56,24.194 62.097,24.194L47.903,24.194C46.44,24.194 45.242,25.282 45.242,26.613Z" fill="#000000"/>
</svg>
