<svg width="70" height="70" viewBox="0 0 70 70" fill="none" xmlns="http://www.w3.org/2000/svg" xmlns:xlink="http://www.w3.org/1999/xlink">
<path d="M65,0L4.984,0C2.234,0 0,2.266 0,5.047L0,64.953C0,67.734 2.234,70 4.984,70L65,70C67.75,70 70,67.734 70,64.953L70,5.047C70,2.266 67.75,0 65,0ZM21.156,60L10.781,60L10.781,26.594L21.172,26.594L21.172,60L21.156,60ZM15.969,22.031C12.641,22.031 9.953,19.328 9.953,16.016C9.953,12.703 12.641,10 15.969,10C19.281,10 21.984,12.703 21.984,16.016C21.984,19.344 19.297,22.031 15.969,22.031ZM60.047,60L49.672,60L49.672,43.75C49.672,39.875 49.594,34.891 44.281,34.891C38.875,34.891 38.047,39.109 38.047,43.469L38.047,60L27.672,60L27.672,26.594L37.625,26.594L37.625,31.156L37.766,31.156C39.156,28.531 42.547,25.766 47.594,25.766C58.094,25.766 60.047,32.688 60.047,41.688L60.047,60Z" fill="#FFFBFB"/>
</svg>
