<svg width="38" height="56" viewBox="0 0 38 56" fill="none" xmlns="http://www.w3.org/2000/svg" xmlns:xlink="http://www.w3.org/1999/xlink">
<path d="M36.926,26.668C36.926,41.767 28.66,54.006 18.463,54.006C8.266,54.006 0,41.767 0,26.668C0,11.57 8.266,-0.67 18.463,-0.67C28.66,-0.67 36.926,11.57 36.926,26.668ZM16.327,41.144L30.026,20.86C30.491,20.172 30.491,19.055 30.026,18.366L28.341,15.872C27.876,15.183 27.122,15.183 26.657,15.872L15.485,32.413L10.269,24.69C9.804,24.002 9.05,24.002 8.585,24.69L6.9,27.185C6.435,27.873 6.435,28.99 6.9,29.679L14.643,41.143C15.108,41.832 15.862,41.832 16.327,41.144Z" fill="#000000"/>
</svg>
