<svg width="70" height="70" viewBox="0 0 70 70" fill="none" xmlns="http://www.w3.org/2000/svg" xmlns:xlink="http://www.w3.org/1999/xlink">
<path d="M23.413,56.364C23.413,56.653 23.089,56.885 22.679,56.885C22.214,56.928 21.889,56.697 21.889,56.364C21.889,56.074 22.214,55.843 22.623,55.843C23.046,55.799 23.413,56.031 23.413,56.364ZM19.024,55.713C18.925,56.002 19.208,56.335 19.631,56.422C19.998,56.567 20.421,56.422 20.506,56.132C20.591,55.843 20.323,55.51 19.899,55.38C19.532,55.278 19.123,55.423 19.024,55.713ZM25.262,55.466C24.853,55.568 24.571,55.843 24.613,56.176C24.655,56.465 25.022,56.653 25.446,56.552C25.855,56.451 26.137,56.176 26.095,55.886C26.052,55.611 25.671,55.423 25.262,55.466ZM34.548,0C14.974,0 0,15.242 0,35.318C0,51.37 9.851,65.107 23.921,69.941C25.728,70.274 26.363,69.13 26.363,68.19C26.363,67.292 26.321,62.342 26.321,59.302C26.321,59.302 16.442,61.473 14.367,54.989C14.367,54.989 12.758,50.777 10.444,49.691C10.444,49.691 7.212,47.419 10.669,47.462C10.669,47.462 14.183,47.752 16.117,51.196C19.208,56.784 24.387,55.177 26.405,54.222C26.73,51.906 27.647,50.299 28.663,49.344C20.774,48.446 12.815,47.274 12.815,33.349C12.815,29.369 13.887,27.371 16.145,24.824C15.778,23.883 14.579,20.004 16.512,14.996C19.462,14.055 26.25,18.904 26.25,18.904C29.073,18.093 32.107,17.673 35.113,17.673C38.119,17.673 41.153,18.093 43.976,18.904C43.976,18.904 50.764,14.04 53.714,14.996C55.647,20.018 54.448,23.883 54.081,24.824C56.339,27.386 57.722,29.383 57.722,33.349C57.722,47.317 49.409,48.432 41.52,49.344C42.819,50.487 43.919,52.658 43.919,56.06C43.919,60.938 43.877,66.974 43.877,68.161C43.877,69.102 44.526,70.245 46.319,69.912C60.431,65.107 70,51.37 70,35.318C70,15.242 54.123,0 34.548,0ZM13.718,49.923C13.534,50.067 13.577,50.4 13.817,50.675C14.042,50.907 14.367,51.008 14.55,50.82C14.734,50.675 14.692,50.342 14.452,50.067C14.226,49.836 13.901,49.735 13.718,49.923ZM12.194,48.75C12.095,48.938 12.236,49.17 12.518,49.315C12.744,49.46 13.026,49.416 13.125,49.213C13.224,49.025 13.083,48.794 12.8,48.649C12.518,48.562 12.292,48.606 12.194,48.75ZM16.766,53.903C16.54,54.091 16.625,54.526 16.95,54.801C17.274,55.134 17.683,55.177 17.867,54.945C18.05,54.757 17.966,54.323 17.683,54.048C17.373,53.715 16.95,53.672 16.766,53.903ZM15.157,51.775C14.931,51.92 14.931,52.297 15.157,52.629C15.383,52.962 15.764,53.107 15.948,52.962C16.173,52.774 16.173,52.398 15.948,52.065C15.75,51.732 15.383,51.587 15.157,51.775Z" fill="#FFF7F7"/>
</svg>
