<svg width="70" height="70" viewBox="0 0 70 70" fill="none" xmlns="http://www.w3.org/2000/svg" xmlns:xlink="http://www.w3.org/1999/xlink">
<path d="M19.444,61.25C16.333,61.25 13.222,58.188 11.667,56.875C3.889,50.75 1.556,48.562 0,47.25L0,65.625C0,68.041 1.741,70 3.889,70L35,70C37.147,70 38.889,68.041 38.889,65.625L38.889,47.25C37.333,48.562 35,50.75 27.222,56.875C25.667,58.188 22.556,61.25 19.444,61.25ZM35,35L3.889,35C1.741,35 0,36.959 0,39.375L0,41.562C3.111,44.188 2.722,44.188 14,53.375C15.167,54.25 17.5,56.875 19.444,56.875C21.389,56.875 23.722,54.25 24.889,53.812C36.167,44.625 35.778,44.625 38.889,42L38.889,39.375C38.889,36.959 37.147,35 35,35ZM66.111,21.875L27.222,21.875C25.075,21.875 23.333,23.834 23.333,26.25L23.333,30.625L35,30.625C39.036,30.625 42.363,34.1 42.743,38.53L42.778,38.5L42.778,56.875L66.111,56.875C68.259,56.875 70,54.916 70,52.5L70,26.25C70,23.834 68.259,21.875 66.111,21.875ZM62.222,39.375L54.444,39.375L54.444,30.625L62.222,30.625L62.222,39.375ZM19.444,26.25C19.444,21.425 22.934,17.5 27.222,17.5L54.444,17.5L54.444,4.375C54.444,1.959 52.703,0 50.556,0L11.667,0C9.519,0 7.778,1.959 7.778,4.375L7.778,30.625L19.444,30.625L19.444,26.25Z" fill="#FFFDFD"/>
</svg>
