<?xml version="1.0" encoding="UTF-8"?>
<svg version="1.1" xmlns="http://www.w3.org/2000/svg" width="204" height="156">
<path d="M0 0 C67.32 0 134.64 0 204 0 C204 51.48 204 102.96 204 156 C136.68 156 69.36 156 0 156 C0 104.52 0 53.04 0 0 Z " fill="#FEFEFE" transform="translate(0,0)"/>
<path d="M0 0 C1.17272461 0.37060547 2.34544922 0.74121094 3.55371094 1.12304688 C4.79540039 1.52458984 6.03708984 1.92613281 7.31640625 2.33984375 C8.60550228 2.75026719 9.89489386 3.15976345 11.18457031 3.56835938 C13.15102292 4.19142026 15.11727991 4.81502111 17.08255005 5.44180298 C24.38906214 7.76978977 31.73388135 9.96969402 39.08374023 12.15649414 C39.97005127 12.42324951 40.8563623 12.69000488 41.76953125 12.96484375 C42.9301709 13.31095703 42.9301709 13.31095703 44.11425781 13.6640625 C45.87890625 14.27734375 45.87890625 14.27734375 46.87890625 15.27734375 C46.99411706 17.31001128 47.03859928 19.34671198 47.0559082 21.38256836 C47.07516106 23.34612526 47.07516106 23.34612526 47.09480286 25.34934998 C47.10297518 26.79279197 47.11041797 28.23623825 47.1171875 29.6796875 C47.12126303 30.4054706 47.12533855 31.1312537 47.12953758 31.87903023 C47.15043532 35.72900231 47.16471441 39.57893848 47.17407227 43.42895508 C47.18507543 47.38645969 47.21939249 51.34339243 47.25924397 55.30069637 C47.28555088 58.35757912 47.29377702 61.41432943 47.29735374 64.47131538 C47.30219259 65.92840957 47.31372857 67.38549892 47.33239174 68.84248161 C47.5036462 83.11226492 44.23873802 92.41349221 34.34130859 102.82666016 C24.09696806 112.98890915 6.37261336 126.00525721 -8.26953125 127.49609375 C-26.24656114 126.71730545 -45.62427048 110.61718213 -57.27734375 97.9296875 C-65.52188359 88.02575935 -66.70105143 78.37299202 -66.51171875 65.86328125 C-66.50424197 64.39784524 -66.49855585 62.93239912 -66.49456787 61.46694946 C-66.47942419 57.64287854 -66.44024302 53.81943249 -66.39575195 49.99560547 C-66.35455309 46.08048959 -66.33650477 42.16527099 -66.31640625 38.25 C-66.27373494 30.59216557 -66.2056244 22.9348428 -66.12109375 15.27734375 C-60.02134953 13.01082809 -53.94806174 10.835819 -47.6875 9.05859375 C-46.72142067 8.78166687 -46.72142067 8.78166687 -45.73582458 8.49914551 C-43.71944682 7.92151511 -41.70169203 7.34893116 -39.68359375 6.77734375 C-37.01729722 6.02015556 -34.35198153 5.25964372 -31.6875 4.49609375 C-31.04318024 4.31248291 -30.39886047 4.12887207 -29.73501587 3.93969727 C-24.67979869 2.48231997 -19.72476255 0.80149965 -14.78491211 -1.00585938 C-9.45183838 -2.44091615 -5.18182099 -1.66125808 0 0 Z " fill="#8485DE" transform="translate(112.12109375,15.72265625)"/>
<path d="M0 0 C1.17272461 0.37060547 2.34544922 0.74121094 3.55371094 1.12304688 C4.79540039 1.52458984 6.03708984 1.92613281 7.31640625 2.33984375 C8.60550228 2.75026719 9.89489386 3.15976345 11.18457031 3.56835938 C13.15102292 4.19142026 15.11727991 4.81502111 17.08255005 5.44180298 C24.38906214 7.76978977 31.73388135 9.96969402 39.08374023 12.15649414 C39.97005127 12.42324951 40.8563623 12.69000488 41.76953125 12.96484375 C42.9301709 13.31095703 42.9301709 13.31095703 44.11425781 13.6640625 C45.87890625 14.27734375 45.87890625 14.27734375 46.87890625 15.27734375 C46.99411706 17.31001128 47.03859928 19.34671198 47.0559082 21.38256836 C47.07516106 23.34612526 47.07516106 23.34612526 47.09480286 25.34934998 C47.10297518 26.79279197 47.11041797 28.23623825 47.1171875 29.6796875 C47.12126303 30.4054706 47.12533855 31.1312537 47.12953758 31.87903023 C47.15043532 35.72900231 47.16471441 39.57893848 47.17407227 43.42895508 C47.18507543 47.38645969 47.21939249 51.34339243 47.25924397 55.30069637 C47.28555088 58.35757912 47.29377702 61.41432943 47.29735374 64.47131538 C47.30219259 65.92840957 47.31372857 67.38549892 47.33239174 68.84248161 C47.5036462 83.11226492 44.23873802 92.41349221 34.34130859 102.82666016 C24.09696806 112.98890915 6.37261336 126.00525721 -8.26953125 127.49609375 C-26.24656114 126.71730545 -45.62427048 110.61718213 -57.27734375 97.9296875 C-65.52188359 88.02575935 -66.70105143 78.37299202 -66.51171875 65.86328125 C-66.50424197 64.39784524 -66.49855585 62.93239912 -66.49456787 61.46694946 C-66.47942419 57.64287854 -66.44024302 53.81943249 -66.39575195 49.99560547 C-66.35455309 46.08048959 -66.33650477 42.16527099 -66.31640625 38.25 C-66.27373494 30.59216557 -66.2056244 22.9348428 -66.12109375 15.27734375 C-60.02134953 13.01082809 -53.94806174 10.835819 -47.6875 9.05859375 C-46.72142067 8.78166687 -46.72142067 8.78166687 -45.73582458 8.49914551 C-43.71944682 7.92151511 -41.70169203 7.34893116 -39.68359375 6.77734375 C-37.01729722 6.02015556 -34.35198153 5.25964372 -31.6875 4.49609375 C-31.04318024 4.31248291 -30.39886047 4.12887207 -29.73501587 3.93969727 C-24.67979869 2.48231997 -19.72476255 0.80149965 -14.78491211 -1.00585938 C-9.45183838 -2.44091615 -5.18182099 -1.66125808 0 0 Z M-16.12109375 7.27734375 C-16.12109375 7.93734375 -16.12109375 8.59734375 -16.12109375 9.27734375 C-15.46109375 9.60734375 -14.80109375 9.93734375 -14.12109375 10.27734375 C-14.97227783 10.5290332 -15.82346191 10.78072266 -16.70043945 11.04003906 C-19.91251556 11.9916038 -23.12364951 12.94623353 -26.33422852 13.90283203 C-27.71375576 14.3132089 -29.09362917 14.72242422 -30.47387695 15.13037109 C-38.78950965 17.58911611 -47.01453601 20.18283046 -55.12109375 23.27734375 C-55.1457415 28.81322908 -55.16392871 34.34908275 -55.17602539 39.88500977 C-55.18106619 41.76978105 -55.18789873 43.6545484 -55.1965332 45.53930664 C-55.20860992 48.24236011 -55.21432443 50.94536206 -55.21875 53.6484375 C-55.22391129 54.49635361 -55.22907257 55.34426971 -55.23439026 56.21788025 C-55.2345857 58.23805443 -55.18315586 60.25812309 -55.12109375 62.27734375 C-53.8887579 63.73854645 -53.8887579 63.73854645 -50.15209961 63.39086914 C-48.3800377 63.39061796 -46.60797091 63.38505353 -44.8359375 63.375 C-44.01130005 63.37399292 -43.1866626 63.37298584 -42.33703613 63.37194824 C-39.24420794 63.36669967 -36.15139951 63.35273852 -33.05859375 63.33984375 C-26.14921875 63.31921875 -19.23984375 63.29859375 -12.12109375 63.27734375 C-12.12109375 80.43734375 -12.12109375 97.59734375 -12.12109375 115.27734375 C-6.53966339 116.39362982 -4.36829327 115.417983 0.37890625 112.90234375 C1.43295654 112.35586182 1.43295654 112.35586182 2.50830078 111.79833984 C15.89738722 104.69361774 29.9618792 95.8009556 35.87890625 81.27734375 C37.36390625 83.25734375 37.36390625 83.25734375 38.87890625 85.27734375 C42.61983435 78.58509521 42.2647828 72.21442153 42.171875 64.6875 C42.16763016 63.38783798 42.16338531 62.08817596 42.15901184 60.74913025 C42.14762574 57.31475116 42.11821375 53.88076024 42.0848999 50.4465332 C42.05406333 46.93380991 42.04047766 43.42102312 42.02539062 39.90820312 C41.99333688 33.0310918 41.9422174 26.15423648 41.87890625 19.27734375 C30.09181631 15.30469947 18.3057197 11.37554407 6.37890625 7.83984375 C5.22777344 7.48986328 4.07664063 7.13988281 2.890625 6.77929688 C1.22966797 6.28526367 1.22966797 6.28526367 -0.46484375 5.78125 C-1.43615234 5.49064697 -2.40746094 5.20004395 -3.40820312 4.90063477 C-8.65674313 3.6947742 -11.7368901 4.02050676 -16.12109375 7.27734375 Z " fill="#FDFDFD" transform="translate(112.12109375,15.72265625)"/>
<path d="M0 0 C1.15693359 0.32677734 2.31386719 0.65355469 3.50585938 0.99023438 C12.9996385 3.71989159 22.27687806 6.95101295 31.5625 10.3125 C31.6322076 17.88417806 31.68541623 25.45582256 31.71793652 33.02774906 C31.73354978 36.54424998 31.75470765 40.0605303 31.78881836 43.5769043 C31.82784335 47.62550905 31.84224501 51.67388439 31.85546875 55.72265625 C31.87869453 57.60429222 31.87869453 57.60429222 31.90238953 59.52394104 C31.90361227 65.89520204 31.69847842 70.70246249 28.5625 76.3125 C25.96310988 73.71310988 26.27534726 72.52262457 26.18359375 68.90234375 C26.14943359 67.83048828 26.11527344 66.75863281 26.08007812 65.65429688 C26.05365234 64.53087891 26.02722656 63.40746094 26 62.25 C25.94033856 60.02983278 25.87675513 57.80976627 25.80859375 55.58984375 C25.78466553 54.60234131 25.7607373 53.61483887 25.73608398 52.59741211 C25.81470064 50.34753039 25.81470064 50.34753039 24.5625 49.3125 C21.53442956 49.1521444 18.52664546 49.05289552 15.49609375 48.99609375 C14.13315941 48.9649221 14.13315941 48.9649221 12.74269104 48.93312073 C9.82854054 48.86752328 6.91429696 48.8086932 4 48.75 C2.02928709 48.70682446 0.05858374 48.66321049 -1.91210938 48.61914062 C-6.75380988 48.51183157 -11.59560437 48.41059325 -16.4375 48.3125 C-16.44780746 47.73842911 -16.45811493 47.16435822 -16.46873474 46.57289124 C-16.57657434 40.61984338 -16.69118977 34.66695385 -16.80981445 28.71411133 C-16.85323588 26.48986104 -16.89490545 24.26557585 -16.93481445 22.04125977 C-16.99234306 18.85161805 -17.05608684 15.6621532 -17.12109375 12.47265625 C-17.13780624 11.47162369 -17.15451874 10.47059113 -17.17173767 9.43922424 C-17.19168289 8.51834518 -17.21162811 7.59746613 -17.23217773 6.64868164 C-17.24772202 5.83371719 -17.2632663 5.01875275 -17.27928162 4.17909241 C-17.23663863 2.29840881 -17.23663863 2.29840881 -18.4375 1.3125 C-19.78497084 1.08174918 -21.14127565 0.90096937 -22.5 0.75 C-23.799375 0.605625 -25.09875 0.46125 -26.4375 0.3125 C-26.4375 -0.3475 -26.4375 -1.0075 -26.4375 -1.6875 C-19.21494401 -7.78153161 -8.01790269 -2.32861749 0 0 Z " fill="#FDFEFD" transform="translate(122.4375,24.6875)"/>
<path d="M0 0 C1.17272461 0.37060547 2.34544922 0.74121094 3.55371094 1.12304688 C4.79540039 1.52458984 6.03708984 1.92613281 7.31640625 2.33984375 C8.60550228 2.75026719 9.89489386 3.15976345 11.18457031 3.56835938 C13.15102292 4.19142026 15.11727991 4.81502111 17.08255005 5.44180298 C24.38906214 7.76978977 31.73388135 9.96969402 39.08374023 12.15649414 C39.97005127 12.42324951 40.8563623 12.69000488 41.76953125 12.96484375 C42.9301709 13.31095703 42.9301709 13.31095703 44.11425781 13.6640625 C45.87890625 14.27734375 45.87890625 14.27734375 46.87890625 15.27734375 C46.99411706 17.31001128 47.03859928 19.34671198 47.0559082 21.38256836 C47.07516106 23.34612526 47.07516106 23.34612526 47.09480286 25.34934998 C47.10297518 26.79279197 47.11041797 28.23623825 47.1171875 29.6796875 C47.12126303 30.4054706 47.12533855 31.1312537 47.12953758 31.87903023 C47.15043532 35.72900231 47.16471441 39.57893848 47.17407227 43.42895508 C47.18507543 47.38645969 47.21939249 51.34339243 47.25924397 55.30069637 C47.28555088 58.35757912 47.29377702 61.41432943 47.29735374 64.47131538 C47.30219259 65.92840957 47.31372857 67.38549892 47.33239174 68.84248161 C47.5036462 83.11226492 44.23873802 92.41349221 34.34130859 102.82666016 C24.09696806 112.98890915 6.37261336 126.00525721 -8.26953125 127.49609375 C-26.24656114 126.71730545 -45.62427048 110.61718213 -57.27734375 97.9296875 C-65.52188359 88.02575935 -66.70105143 78.37299202 -66.51171875 65.86328125 C-66.50424197 64.39784524 -66.49855585 62.93239912 -66.49456787 61.46694946 C-66.47942419 57.64287854 -66.44024302 53.81943249 -66.39575195 49.99560547 C-66.35455309 46.08048959 -66.33650477 42.16527099 -66.31640625 38.25 C-66.27373494 30.59216557 -66.2056244 22.9348428 -66.12109375 15.27734375 C-60.02134953 13.01082809 -53.94806174 10.835819 -47.6875 9.05859375 C-46.72142067 8.78166687 -46.72142067 8.78166687 -45.73582458 8.49914551 C-43.71944682 7.92151511 -41.70169203 7.34893116 -39.68359375 6.77734375 C-37.01729722 6.02015556 -34.35198153 5.25964372 -31.6875 4.49609375 C-31.04318024 4.31248291 -30.39886047 4.12887207 -29.73501587 3.93969727 C-24.67979869 2.48231997 -19.72476255 0.80149965 -14.78491211 -1.00585938 C-9.45183838 -2.44091615 -5.18182099 -1.66125808 0 0 Z M-20.56640625 6.32421875 C-21.25813934 6.5366925 -21.94987244 6.74916626 -22.66256714 6.96807861 C-24.8600352 7.64534971 -27.05301284 8.33601493 -29.24609375 9.02734375 C-30.69373085 9.47616314 -32.14164596 9.92408685 -33.58984375 10.37109375 C-36.41898523 11.24570579 -39.24592722 12.12692967 -42.07128906 13.01367188 C-44.72270883 13.84448916 -47.37773619 14.66113216 -50.03808594 15.46289062 C-51.80780762 15.9975293 -51.80780762 15.9975293 -53.61328125 16.54296875 C-55.17731689 17.01138184 -55.17731689 17.01138184 -56.77294922 17.48925781 C-59.05264535 18.06043781 -59.05264535 18.06043781 -60.12109375 19.27734375 C-60.24133243 21.18732202 -60.29132049 23.10175561 -60.31396484 25.01538086 C-60.33002777 26.24433578 -60.3460907 27.47329071 -60.36264038 28.73948669 C-60.37413465 30.09454658 -60.38474204 31.44961423 -60.39453125 32.8046875 C-60.39985493 33.48634035 -60.4051786 34.1679932 -60.4106636 34.8703022 C-60.43743729 38.48684694 -60.45678786 42.10335686 -60.47119141 45.7199707 C-60.48446668 48.70075613 -60.51219112 51.68084651 -60.55322266 54.66137695 C-60.60286885 58.26769836 -60.62735284 61.87339493 -60.63441849 65.48004341 C-60.64108582 66.84785333 -60.65618868 68.21565183 -60.6803093 69.5832653 C-60.8777299 81.46685783 -58.2702202 89.63151592 -50.109375 98.3515625 C-39.86114837 108.27764448 -25.15346675 118.72329295 -11.12109375 122.27734375 C4.77491977 121.33713937 22.45414662 107.6107671 32.97265625 96.58203125 C38.39665881 90.02432323 42.00984525 83.83027273 41.99243164 75.24536133 C41.99235611 74.0043013 41.99228058 72.76324127 41.99220276 71.48457336 C41.98709616 70.13034017 41.98188016 68.77610738 41.9765625 67.421875 C41.97469708 66.0361079 41.97327376 64.65034014 41.97227478 63.26457214 C41.96845935 59.61986465 41.95863738 55.9751971 41.9475708 52.33050537 C41.93733575 48.61031637 41.93277267 44.8901209 41.92773438 41.16992188 C41.91701423 33.87237764 41.8999495 26.57486629 41.87890625 19.27734375 C30.12959112 15.32205251 18.38292715 11.39079212 6.50390625 7.83984375 C5.36953125 7.48986328 4.23515625 7.13988281 3.06640625 6.77929688 C1.96554688 6.44994141 0.8646875 6.12058594 -0.26953125 5.78125 C-1.23036621 5.49064697 -2.19120117 5.20004395 -3.18115234 4.90063477 C-9.38887883 3.58454726 -14.60817331 4.4193036 -20.56640625 6.32421875 Z " fill="#7C7CE6" transform="translate(112.12109375,15.72265625)"/>
<path d="M0 0 C0 13.53 0 27.06 0 41 C-12.54 41 -25.08 41 -38 41 C-38 31.1 -38 21.2 -38 11 C-34.24625 9.741875 -30.4925 8.48375 -26.625 7.1875 C-25.46307129 6.79715576 -24.30114258 6.40681152 -23.10400391 6.00463867 C-18.23532849 4.37747827 -13.36095907 2.76875071 -8.4609375 1.23828125 C-7.69313965 0.99762939 -6.9253418 0.75697754 -6.13427734 0.5090332 C-4 0 -4 0 0 0 Z " fill="#FCFCFD" transform="translate(100,32)"/>
<path d="M0 0 C12.54 0 25.08 0 38 0 C38 19.92785571 38 19.92785571 32 26 C31.28457031 26.74378906 30.56914062 27.48757812 29.83203125 28.25390625 C22.89022304 34.94657942 9.93094261 46 0 46 C0 30.82 0 15.64 0 0 Z " fill="#FAFBFD" transform="translate(105,79)"/>
<path d="M0 0 C13.86 0 27.72 0 42 0 C42.12375 3.96 42.2475 7.92 42.375 12 C42.42962402 13.23234375 42.48424805 14.4646875 42.54052734 15.734375 C42.64072131 22.38811603 42.01375752 26.39724502 37.53320312 31.43457031 C37.02724609 31.95116211 36.52128906 32.46775391 36 33 C35.40316406 33.71929687 34.80632812 34.43859375 34.19140625 35.1796875 C29.99403203 39.54817769 25.37925907 43.00061597 20.375 46.375 C19.74150635 46.80409668 19.1080127 47.23319336 18.45532227 47.67529297 C14.74879233 50.10048756 11.30803039 51.79375149 7 53 C6.6640625 50.2109375 6.6640625 50.2109375 7 47 C9.2734375 45.1640625 9.2734375 45.1640625 12.375 43.625 C23.66350847 37.56191418 33.1403785 30.14905374 38 18 C38.33 12.72 38.66 7.44 39 2 C26.13 2 13.26 2 0 2 C0 1.34 0 0.68 0 0 Z " fill="#7B7AE8" transform="translate(105,75)"/>
<path d="M0 0 C0.33 0 0.66 0 1 0 C1.495 2.475 1.495 2.475 2 5 C3.32 3.35 4.64 1.7 6 0 C5.49668093 9.5630624 -1.43501718 17.18326114 -8.046875 23.48828125 C-17.98880388 31.94418107 -29.05471421 37.88301233 -41 43 C-43 39.25 -43 39.25 -43 37 C-41.99582031 36.52691406 -40.99164063 36.05382812 -39.95703125 35.56640625 C-24.60919649 28.20284152 -7.82289017 19.48865124 -1 3 C-0.67 2.01 -0.34 1.02 0 0 Z " fill="#F4F4FC" transform="translate(148,94)"/>
<path d="M0 0 C0 0.66 0 1.32 0 2 C0.99 2 1.98 2 3 2 C2.67 2.99 2.34 3.98 2 5 C-0.6673712 6.05372688 -3.226205 6.90884878 -5.97265625 7.69921875 C-7.16912025 8.05908623 -7.16912025 8.05908623 -8.38975525 8.42622375 C-10.94404147 9.19158953 -13.50302849 9.93967877 -16.0625 10.6875 C-17.79265392 11.20264819 -19.52247664 11.71891017 -21.25195312 12.23632812 C-25.49756348 13.50385245 -29.74746844 14.75590328 -34 16 C-34 14.68 -34 13.36 -34 12 C-34.66 12 -35.32 12 -36 12 C-36 24.54 -36 37.08 -36 50 C-36.66 50 -37.32 50 -38 50 C-38 37.13 -38 24.26 -38 11 C-33.359375 9.55625 -28.71875 8.1125 -23.9375 6.625 C-22.48722412 6.17334473 -21.03694824 5.72168945 -19.54272461 5.25634766 C-17.80261108 4.7156665 -17.80261108 4.7156665 -16.02734375 4.1640625 C-14.25991821 3.61419678 -14.25991821 3.61419678 -12.45678711 3.05322266 C-2.43579045 0 -2.43579045 0 0 0 Z " fill="#7B7AEC" transform="translate(97,27)"/>
<path d="M0 0 C0.99 0.33 1.98 0.66 3 1 C2.67 23.11 2.34 45.22 2 68 C1.34 68 0.68 68 0 68 C-2.3639196 64.45412059 -2.24355585 62.98496318 -2.22705078 58.78442383 C-2.22689972 57.5033223 -2.22674866 56.22222076 -2.22659302 54.90229797 C-2.21637973 53.50387416 -2.20594774 52.10545192 -2.1953125 50.70703125 C-2.19158178 49.27642515 -2.18873509 47.84581648 -2.18673706 46.41520691 C-2.17910522 42.65207856 -2.15946069 38.88910489 -2.1373291 35.1260376 C-2.11686094 31.28521822 -2.10773327 27.44437383 -2.09765625 23.60351562 C-2.07621429 16.06893994 -2.04208387 8.53449166 -2 1 C-1.34 0.67 -0.68 0.34 0 0 Z " fill="#7676EE" transform="translate(49,31)"/>
<path d="M0 0 C0.66 0 1.32 0 2 0 C2 12.54 2 25.08 2 38 C2.66 38 3.32 38 4 38 C4 25.46 4 12.92 4 0 C4.66 0 5.32 0 6 0 C5.67 11.22 5.34 22.44 5 34 C17.54 34 30.08 34 43 34 C43 34.33 43 34.66 43 35 C30.46 35 17.92 35 5 35 C5.66 35.33 6.32 35.66 7 36 C7 36.66 7 37.32 7 38 C18.88 38 30.76 38 43 38 C43 38.66 43 39.32 43 40 C37.03686834 40.02464574 31.07376605 40.042834 25.1105957 40.05493164 C23.08031702 40.05997278 21.05004198 40.06680557 19.01977539 40.07543945 C16.10822653 40.08751467 13.1967255 40.09323034 10.28515625 40.09765625 C8.91485008 40.10539818 8.91485008 40.10539818 7.51686096 40.11329651 C5.34424573 40.11349168 3.17172704 40.06211805 1 40 C0 39 0 39 -0.11352539 35.30639648 C-0.11336624 33.66128708 -0.10766988 32.01617269 -0.09765625 30.37109375 C-0.0962413 29.50686295 -0.09482635 28.64263214 -0.09336853 27.75221252 C-0.08775239 24.98060708 -0.07519719 22.2090812 -0.0625 19.4375 C-0.05748708 17.5631522 -0.05292381 15.68880315 -0.04882812 13.81445312 C-0.03777772 9.20960456 -0.0205023 4.60481579 0 0 Z " fill="#8484DA" transform="translate(57,39)"/>
<path d="M0 0 C0.33 0 0.66 0 1 0 C1.04951099 5.74746449 1.0857723 11.49480427 1.10986328 17.24243164 C1.11990853 19.19688073 1.13354717 21.15131484 1.15087891 23.10571289 C1.17519203 25.91816917 1.18649797 28.73042639 1.1953125 31.54296875 C1.20563507 32.41398727 1.21595764 33.2850058 1.22659302 34.18241882 C1.22740224 38.57760348 1.06916555 42.00128388 -1 46 C-6.37515933 46.02467759 -11.75028585 46.04284928 -17.12548828 46.05493164 C-18.95492121 46.05996737 -20.78435009 46.06679627 -22.61376953 46.07543945 C-25.23991898 46.08753824 -27.86601532 46.09323583 -30.4921875 46.09765625 C-31.31306854 46.10281754 -32.13394958 46.10797882 -32.97970581 46.11329651 C-38.77225659 46.11387171 -38.77225659 46.11387171 -41 45 C-41 44.34 -41 43.68 -41 43 C-28.46 42.67 -15.92 42.34 -3 42 C-2.67 29.13 -2.34 16.26 -2 3 C-1.34 3 -0.68 3 0 3 C0 2.01 0 1.02 0 0 Z " fill="#7576EF" transform="translate(103,31)"/>
<path d="M0 0 C-0.66 0.66 -1.32 1.32 -2 2 C-2.99 2 -3.98 2 -5 2 C-5 2.66 -5 3.32 -5 4 C-3.02 4 -1.04 4 1 4 C-2.40900757 5.87123163 -5.87889461 6.95509776 -9.6015625 8.05859375 C-10.23806732 8.24841324 -10.87457214 8.43823273 -11.53036499 8.63380432 C-13.56089714 9.23850801 -15.59289549 9.838104 -17.625 10.4375 C-18.96754952 10.83624661 -20.30999845 11.23533206 -21.65234375 11.63476562 C-24.24329424 12.4052708 -26.83483887 13.17366497 -29.42675781 13.94091797 C-33.95450334 15.28290759 -38.47806061 16.63859192 -43 18 C-42.67 17.01 -42.34 16.02 -42 15 C-42.99 14.01 -43.98 13.02 -45 12 C-43.61167969 11.5978125 -43.61167969 11.5978125 -42.1953125 11.1875 C-40.83843336 10.79203808 -39.4816739 10.39616543 -38.125 10 C-37.3920874 9.78649902 -36.6591748 9.57299805 -35.90405273 9.35302734 C-30.96978658 7.90451833 -26.05702865 6.39740498 -21.15234375 4.8515625 C-19.98106934 4.48417969 -18.80979492 4.11679687 -17.60302734 3.73828125 C-15.25377197 2.99958283 -12.90640696 2.25484387 -10.56103516 1.50390625 C-9.47999512 1.16488281 -8.39895508 0.82585938 -7.28515625 0.4765625 C-6.31457275 0.16799316 -5.34398926 -0.14057617 -4.34399414 -0.45849609 C-2 -1 -2 -1 0 0 Z " fill="#F5F5FA" transform="translate(101,21)"/>
<path d="M0 0 C0.33 0 0.66 0 1 0 C1.33 20.46 1.66 40.92 2 62 C2.33 62 2.66 62 3 62 C3 63.98 3 65.96 3 68 C3.66 68 4.32 68 5 68 C5 46.88 5 25.76 5 4 C5.33 4 5.66 4 6 4 C5.99880661 5.14060127 5.99880661 5.14060127 5.99758911 6.304245 C5.99536673 13.52621819 6.02216249 20.74726226 6.0802784 27.96898174 C6.10915655 31.68041685 6.12742867 35.39122896 6.12011719 39.1027832 C6.11345273 42.69539078 6.13640359 46.286775 6.17855453 49.87912941 C6.19485974 51.89328973 6.18172727 53.90762085 6.16775513 55.92179871 C6.31583197 65.45926588 8.55019151 71.64142162 13 80 C13 80.33 13 80.66 13 81 C10.8125 81.4375 10.8125 81.4375 8 81 C-0.04975288 71.80028243 -0.42468879 62.47318511 -0.29296875 50.78125 C-0.28736451 49.31295203 -0.28309833 47.84464839 -0.28010559 46.37634277 C-0.26872184 42.53593099 -0.23931166 38.69586658 -0.20599365 34.85559082 C-0.17515211 30.92721249 -0.16157034 26.99877733 -0.14648438 23.0703125 C-0.11443467 15.380051 -0.0633182 7.69007441 0 0 Z " fill="#9999EA" transform="translate(46,31)"/>
<path d="M0 0 C0.99 0 1.98 0 3 0 C3.16791607 4.76866395 3.32844326 9.53749838 3.48217773 14.30664062 C3.53549272 15.9284532 3.59081357 17.55020115 3.64819336 19.171875 C3.73039833 21.5050666 3.80534775 23.83839676 3.87890625 26.171875 C3.90594131 26.89493835 3.93297638 27.61800171 3.96083069 28.36297607 C4.06138616 31.7675007 4.0060208 34.73996 3 38 C2.855625 39.175625 2.71125 40.35125 2.5625 41.5625 C2 45 2 45 0 48 C0 32.16 0 16.32 0 0 Z " fill="#7576EE" transform="translate(101,80)"/>
<path d="M0 0 C0.33 0 0.66 0 1 0 C1.33 15.18 1.66 30.36 2 46 C2.33 43.69 2.66 41.38 3 39 C3.30903983 37.66082739 3.62942911 36.32346746 4 35 C4.33 35 4.66 35 5 35 C5 38.63 5 42.26 5 46 C7.31 45.34 9.62 44.68 12 44 C12 45.98 12 47.96 12 50 C5.625 53.125 5.625 53.125 0 52 C0 34.84 0 17.68 0 0 Z " fill="#8281E4" transform="translate(100,79)"/>
<path d="M0 0 C13.86 0 27.72 0 42 0 C42 7.92 42 15.84 42 24 C41.01 24.33 40.02 24.66 39 25 C39 17.74 39 10.48 39 3 C19.695 2.505 19.695 2.505 0 2 C0 1.34 0 0.68 0 0 Z " fill="#7574F7" transform="translate(105,75)"/>
<path d="M0 0 C0 15.18 0 30.36 0 46 C-0.33 46 -0.66 46 -1 46 C-1 32.14 -1 18.28 -1 4 C-1.66 4 -2.32 4 -3 4 C-3 4.99 -3 5.98 -3 7 C-3.66 7 -4.32 7 -5 7 C-5 19.87 -5 32.74 -5 46 C-5.33 46 -5.66 46 -6 46 C-6.16738578 40.05533775 -6.32796884 34.11054603 -6.48217773 28.16552734 C-6.53563266 26.14203921 -6.59096466 24.11859977 -6.64819336 22.09521484 C-6.73000696 19.19118757 -6.80512562 16.28705356 -6.87890625 13.3828125 C-6.90594131 12.47443634 -6.93297638 11.56606018 -6.96083069 10.63015747 C-6.98092697 9.78943695 -7.00102325 8.94871643 -7.02172852 8.08251953 C-7.04171402 7.34083527 -7.06169952 6.599151 -7.08229065 5.83499146 C-7 4 -7 4 -6 2 C-6.99 2 -7.98 2 -9 2 C-8.67 1.01 -8.34 0.02 -8 -1 C-4.40321889 -2.61235015 -3.79177789 -1.89588895 0 0 Z " fill="#9694EF" transform="translate(106,27)"/>
<path d="M0 0 C0 0.99 0 1.98 0 3 C0.680625 2.95875 1.36125 2.9175 2.0625 2.875 C5.59924168 3.02549965 8.63323033 3.94375853 12 5 C12 5.66 12 6.32 12 7 C8.7 7 5.4 7 2 7 C2 6.34 2 5.68 2 5 C1.01 5 0.02 5 -1 5 C-1 4.34 -1 3.68 -1 3 C-2.98 3 -4.96 3 -7 3 C-7.33 2.34 -7.66 1.68 -8 1 C-5.29120665 -0.35439668 -2.99066732 -0.06501451 0 0 Z " fill="#7677EF" transform="translate(112,16)"/>
<path d="M0 0 C0 0.99 0 1.98 0 3 C-1.60256108 3.50512244 -3.20711792 4.00391627 -4.8125 4.5 C-6.15248047 4.91765625 -6.15248047 4.91765625 -7.51953125 5.34375 C-10 6 -10 6 -13 6 C-13 4.35 -13 2.7 -13 1 C-8.61414671 0.29826347 -4.44209357 -0.10834375 0 0 Z " fill="#7779EA" transform="translate(89,21)"/>
<path d="M0 0 C0.66 0.66 1.32 1.32 2 2 C1.01 2.66 0.02 3.32 -1 4 C1.97 4.495 1.97 4.495 5 5 C5 5.66 5 6.32 5 7 C5.99 7 6.98 7 8 7 C8 7.66 8 8.32 8 9 C6.88625 8.67 5.7725 8.34 4.625 8 C-0.26454223 6.75570789 -4.98577615 6.81504912 -10 7 C-8.04783565 5.04783565 -6.46800047 4.15173355 -4 3 C-5.44754255 1.55245745 -7.03962913 1.44266439 -9 1 C-5.75778445 -0.08073852 -3.39597063 -0.21676408 0 0 Z " fill="#8885DE" transform="translate(106,14)"/>
<path d="M0 0 C1.60463449 0.31008884 3.20869231 0.62316287 4.8125 0.9375 C5.70582031 1.11152344 6.59914063 1.28554688 7.51953125 1.46484375 C10 2 10 2 13 3 C13 4.65 13 6.3 13 8 C13.99 8 14.98 8 16 8 C16 8.66 16 9.32 16 10 C10.06 8.515 10.06 8.515 4 7 C4 6.67 4 6.34 4 6 C6.64 6 9.28 6 12 6 C12 5.34 12 4.68 12 4 C10.700625 4.061875 10.700625 4.061875 9.375 4.125 C5.87641532 3.99542279 3.25448403 3.23980344 0 2 C0 1.34 0 0.68 0 0 Z " fill="#8382E1" transform="translate(112,17)"/>
<path d="M0 0 C0.94359375 0.12568359 0.94359375 0.12568359 1.90625 0.25390625 C7.5314382 0.9231681 12.41233867 0.93127689 18 0 C18 0.66 18 1.32 18 2 C13.04487015 4.03287378 8.30443635 4.6870508 3 4 C2.01 3.34 1.02 2.68 0 2 C0 1.34 0 0.68 0 0 Z " fill="#7675F5" transform="translate(94,137)"/>
<path d="M0 0 C0.33 0 0.66 0 1 0 C1 1.98 1 3.96 1 6 C1.66 6 2.32 6 3 6 C3 4.02 3 2.04 3 0 C3.33 0 3.66 0 4 0 C4.99 3.96 5.98 7.92 7 12 C6.34 12 5.68 12 5 12 C4.67 11.01 4.34 10.02 4 9 C4 10.98 4 12.96 4 15 C1.7522025 12.94766315 0.9977758 11.99332739 0 9 C-0.06740865 7.43881572 -0.08514456 5.8749748 -0.0625 4.3125 C-0.05347656 3.50425781 -0.04445312 2.69601563 -0.03515625 1.86328125 C-0.02355469 1.24839844 -0.01195312 0.63351563 0 0 Z " fill="#7D7EE3" transform="translate(48,93)"/>
<path d="M0 0 C0 0.99 0 1.98 0 3 C1.32 3.33 2.64 3.66 4 4 C-0.95 5.485 -0.95 5.485 -6 7 C-5.67 6.01 -5.34 5.02 -5 4 C-5.99 3.01 -6.98 2.02 -8 1 C-5.23735711 0.40267181 -2.83967231 0 0 0 Z " fill="#F0F2FD" transform="translate(64,32)"/>
<path d="M0 0 C-2.58302505 3.30053201 -4.99241477 3.39015007 -9 4 C-9.33 4.66 -9.66 5.32 -10 6 C-12.475 5.01 -12.475 5.01 -15 4 C-15 3.67 -15 3.34 -15 3 C-13.02 3 -11.04 3 -9 3 C-9 2.01 -9 1.02 -9 0 C-5.62182575 -0.84454356 -3.32534757 -1.10844919 0 0 Z " fill="#7677F2" transform="translate(105,16)"/>
<path d="M0 0 C-0.99 1.485 -0.99 1.485 -2 3 C-1.01 3.33 -0.02 3.66 1 4 C-2.465 5.485 -2.465 5.485 -6 7 C-6.33 5.02 -6.66 3.04 -7 1 C-3.375 -1.125 -3.375 -1.125 0 0 Z " fill="#EFF1FD" transform="translate(112,130)"/>
<path d="M0 0 C-1.32 0.33 -2.64 0.66 -4 1 C-4 1.66 -4 2.32 -4 3 C-6.31 3 -8.62 3 -11 3 C-11.33 2.34 -11.66 1.68 -12 1 C-7.67265609 -1.22923777 -4.71599818 -0.92470553 0 0 Z " fill="#7675F3" transform="translate(92,32)"/>
<path d="M0 0 C-1.32 0.33 -2.64 0.66 -4 1 C-3.67 1.99 -3.34 2.98 -3 4 C-4.98 4.33 -6.96 4.66 -9 5 C-9 5.66 -9 6.32 -9 7 C-9.99 7 -10.98 7 -12 7 C-12 6.01 -12 5.02 -12 4 C-10.56988027 3.13353333 -9.13059381 2.28218171 -7.6875 1.4375 C-6.48673828 0.72400391 -6.48673828 0.72400391 -5.26171875 -0.00390625 C-3 -1 -3 -1 0 0 Z " fill="#7575F2" transform="translate(137,124)"/>
<path d="M0 0 C1.65 0 3.3 0 5 0 C3.515 1.485 3.515 1.485 2 3 C2.33 3.99 2.66 4.98 3 6 C0.36 5.34 -2.28 4.68 -5 4 C-4.67 3.34 -4.34 2.68 -4 2 C-2.68 2 -1.36 2 0 2 C0 1.34 0 0.68 0 0 Z " fill="#8483E0" transform="translate(151,29)"/>
<path d="M0 0 C0.66 1.32 1.32 2.64 2 4 C2.66 3.01 3.32 2.02 4 1 C4.33 1.99 4.66 2.98 5 4 C3.5625 6.6875 3.5625 6.6875 2 9 C0.68 7.35 -0.64 5.7 -2 4 C-1.34 2.68 -0.68 1.36 0 0 Z " fill="#8280E2" transform="translate(152,100)"/>
<path d="M0 0 C0.33 0.66 0.66 1.32 1 2 C-1.31 2 -3.62 2 -6 2 C-6 2.66 -6 3.32 -6 4 C-7.32 4 -8.64 4 -10 4 C-10 3.34 -10 2.68 -10 2 C-6.3558226 -0.4294516 -4.28758728 -0.16179575 0 0 Z " fill="#7376F5" transform="translate(74,25)"/>
<path d="M0 0 C1.65 0.33 3.3 0.66 5 1 C5 1.99 5 2.98 5 4 C1.71023192 5.09658936 0.28696233 4.79953138 -3 4 C-2.01 2.68 -1.02 1.36 0 0 Z " fill="#7976EC" transform="translate(70,35)"/>
<path d="M0 0 C-0.99 0.33 -1.98 0.66 -3 1 C-3.33 1.99 -3.66 2.98 -4 4 C-4 3.34 -4 2.68 -4 2 C-8.455 2.495 -8.455 2.495 -13 3 C-8.8341563 0.22277086 -4.9360889 -1.89849573 0 0 Z " fill="#8787DE" transform="translate(67,26)"/>
<path d="M0 0 C0.66 0.33 1.32 0.66 2 1 C1.67 2.65 1.34 4.3 1 6 C-0.32 6 -1.64 6 -3 6 C-2.42655063 3.13275314 -2.1385485 2.1385485 0 0 Z " fill="#FBFCF8" transform="translate(147,102)"/>
<path d="M0 0 C-0.33 1.32 -0.66 2.64 -1 4 C-0.01 4.33 0.98 4.66 2 5 C0.68 5.33 -0.64 5.66 -2 6 C-2.33 5.01 -2.66 4.02 -3 3 C-5.01508358 2.26676204 -5.01508358 2.26676204 -7 2 C-4 0 -4 0 0 0 Z " fill="#8081DF" transform="translate(54,29)"/>
<path d="M0 0 C0.763125 0.061875 1.52625 0.12375 2.3125 0.1875 C2.6425 1.1775 2.9725 2.1675 3.3125 3.1875 C0.3425 3.1875 -2.6275 3.1875 -5.6875 3.1875 C-2.6875 0.1875 -2.6875 0.1875 0 0 Z " fill="#7675EF" transform="translate(60.6875,27.8125)"/>
<path d="M0 0 C0.66 0 1.32 0 2 0 C2 0.66 2 1.32 2 2 C2.99 2.33 3.98 2.66 5 3 C4.34 3.66 3.68 4.32 3 5 C0.875 4.625 0.875 4.625 -1 4 C-0.67 2.68 -0.34 1.36 0 0 Z " fill="#7676EE" transform="translate(71,123)"/>
<path d="M0 0 C0 1.32 0 2.64 0 4 C-2.31 3.67 -4.62 3.34 -7 3 C-4.74624683 0.74624683 -3.20799182 0 0 0 Z " fill="#7774F2" transform="translate(111,125)"/>
<path d="M0 0 C0.66 0 1.32 0 2 0 C2.33 0.99 2.66 1.98 3 3 C3.66 3.33 4.32 3.66 5 4 C4.01 4.99 3.02 5.98 2 7 C0.4375 5.75 0.4375 5.75 -1 4 C-0.6875 1.8125 -0.6875 1.8125 0 0 Z " fill="#827FE3" transform="translate(142,96)"/>
<path d="M0 0 C0.99 0 1.98 0 3 0 C3 0.99 3 1.98 3 3 C3.99 3.33 4.98 3.66 6 4 C4.125 4.625 4.125 4.625 2 5 C1.34 4.34 0.68 3.68 0 3 C0 2.01 0 1.02 0 0 Z " fill="#7C76F1" transform="translate(57,113)"/>
<path d="M0 0 C0.99 0.495 0.99 0.495 2 1 C2 1.99 2 2.98 2 4 C2.66 4 3.32 4 4 4 C4 4.99 4 5.98 4 7 C3.01 7 2.02 7 1 7 C0.67 4.69 0.34 2.38 0 0 Z " fill="#7575F4" transform="translate(51,101)"/>
<path d="M0 0 C-1.98 0.99 -1.98 0.99 -4 2 C-4 2.33 -4 2.66 -4 3 C-5.65 3 -7.3 3 -9 3 C-9 2.34 -9 1.68 -9 1 C-5.57367167 -0.61798838 -3.61944899 -1.34053666 0 0 Z " fill="#8284DF" transform="translate(85,32)"/>
</svg>
